Normalized EMG Linear Envelopes
nRows=21
nColumns=17

endheader
time	        VM	        VL	        RF	       GRA	        TA	   ADDLONG	   SEMIMEM	      BFLH	        GM	        GL	       TFL	   GLUTMAX	   GLUTMED	      PIRI	    OBTINT	        QF	
1.43	  0.359578	  0.286169	  0.061715	  0.448675	  0.425809	  0.231093	  0.507781	  0.682096	  0.380962	  0.118058	  0.019241	  0.268759	  0.061885	  0.218087	  0.376361	  0.674507	
1.4305	  0.362916	  0.288901	  0.062227	  0.449524	  0.425104	  0.231507	  0.509639	  0.682941	  0.380604	  0.118850	  0.019365	  0.271100	  0.061850	  0.218621	  0.377296	  0.678976	
1.431	  0.366275	  0.291627	  0.062737	  0.450332	  0.424373	  0.231869	  0.511508	  0.683722	  0.380272	  0.119655	  0.019493	  0.273479	  0.061832	  0.219175	  0.378261	  0.683466	
1.4315	  0.369653	  0.294347	  0.063244	  0.451098	  0.423621	  0.232179	  0.513388	  0.684437	  0.379965	  0.120474	  0.019626	  0.275894	  0.061831	  0.219750	  0.379256	  0.687974	
1.432	  0.373051	  0.297061	  0.063748	  0.451821	  0.422847	  0.232437	  0.515276	  0.685085	  0.379681	  0.121305	  0.019763	  0.278345	  0.061848	  0.220346	  0.380281	  0.692499	
1.4325	  0.376467	  0.299768	  0.064248	  0.452500	  0.422055	  0.232644	  0.517172	  0.685663	  0.379418	  0.122149	  0.019904	  0.280829	  0.061883	  0.220962	  0.381336	  0.697039	
1.433	  0.379903	  0.302468	  0.064746	  0.453134	  0.421246	  0.232798	  0.519075	  0.686170	  0.379176	  0.123006	  0.020050	  0.283346	  0.061934	  0.221598	  0.382421	  0.701591	
1.4335	  0.383357	  0.305161	  0.065241	  0.453722	  0.420422	  0.232901	  0.520984	  0.686602	  0.378953	  0.123874	  0.020200	  0.285895	  0.062004	  0.222255	  0.383535	  0.706154	
1.434	  0.386831	  0.307847	  0.065733	  0.454265	  0.419584	  0.232954	  0.522898	  0.686959	  0.378748	  0.124753	  0.020355	  0.288473	  0.062090	  0.222932	  0.384678	  0.710726	
1.4345	  0.390323	  0.310526	  0.066222	  0.454761	  0.418735	  0.232955	  0.524815	  0.687238	  0.378559	  0.125644	  0.020514	  0.291080	  0.062194	  0.223630	  0.385851	  0.715304	
1.435	  0.393834	  0.313199	  0.066708	  0.455210	  0.417875	  0.232907	  0.526736	  0.687437	  0.378386	  0.126545	  0.020678	  0.293714	  0.062315	  0.224349	  0.387053	  0.719888	
1.4355	  0.397365	  0.315865	  0.067192	  0.455611	  0.417006	  0.232808	  0.528658	  0.687554	  0.378229	  0.127457	  0.020846	  0.296374	  0.062453	  0.225087	  0.388283	  0.724474	
1.436	  0.400914	  0.318525	  0.067673	  0.455964	  0.416130	  0.232659	  0.530581	  0.687588	  0.378085	  0.128378	  0.021019	  0.299057	  0.062609	  0.225846	  0.389541	  0.729060	
1.4365	  0.404484	  0.321178	  0.068151	  0.456268	  0.415247	  0.232461	  0.532504	  0.687537	  0.377955	  0.129308	  0.021196	  0.301762	  0.062781	  0.226624	  0.390828	  0.733644	
1.437	  0.408074	  0.323825	  0.068626	  0.456523	  0.414359	  0.232214	  0.534426	  0.687401	  0.377838	  0.130247	  0.021378	  0.304489	  0.062970	  0.227422	  0.392142	  0.738223	
1.4375	  0.411684	  0.326466	  0.069099	  0.456729	  0.413467	  0.231917	  0.536346	  0.687181	  0.377734	  0.131194	  0.021565	  0.307234	  0.063177	  0.228240	  0.393484	  0.742794	
1.438	  0.415316	  0.329101	  0.069568	  0.456884	  0.412572	  0.231572	  0.538263	  0.686877	  0.377641	  0.132149	  0.021756	  0.309996	  0.063399	  0.229076	  0.394853	  0.747356	
1.4385	  0.418970	  0.331730	  0.070035	  0.456987	  0.411675	  0.231179	  0.540176	  0.686489	  0.377561	  0.133110	  0.021952	  0.312774	  0.063639	  0.229932	  0.396249	  0.751905	
1.439	  0.422647	  0.334353	  0.070500	  0.457040	  0.410776	  0.230739	  0.542084	  0.686020	  0.377492	  0.134079	  0.022152	  0.315565	  0.063895	  0.230806	  0.397672	  0.756439	
1.4395	  0.426346	  0.336970	  0.070962	  0.457041	  0.409876	  0.230252	  0.543986	  0.685469	  0.377435	  0.135053	  0.022357	  0.318368	  0.064168	  0.231699	  0.399123	  0.760957	
1.44	  0.430067	  0.339583	  0.071422	  0.456991	  0.408975	  0.229720	  0.545882	  0.684837	  0.377390	  0.136032	  0.022567	  0.321181	  0.064456	  0.232611	  0.400602	  0.765454	
